<svg width="483" height="416" viewBox="0 0 483 416" fill="none" xmlns="http://www.w3.org/2000/svg">
<path d="M22.3096 170.979C17.2455 136.213 38.3698 102.971 71.9957 92.791L301.569 23.2901C342.427 10.9207 384.884 37.1451 392.116 79.2175L435.73 332.973C443.186 376.356 409.775 416 365.756 416H119.407C84.1481 416 54.231 390.125 49.1487 355.234L22.3096 170.979Z" fill="#1B1C1F"/>
<path d="M93.1671 70.9502C103.868 47.6806 145.879 51.002 170.888 58.9007C206.528 70.1578 218.126 69.6403 234.294 71.4518C250.465 73.2632 262.578 99.9081 243.281 135.735C230.948 158.63 209.976 163.319 202.053 179.412C188.312 207.328 179.077 206.301 185.669 258.666C192.364 311.853 118.107 331.726 80.3111 326.648C42.5155 321.569 5.14933 276.475 6.31452 242.463C7.38694 211.223 30.2054 188.359 50.4389 168.174C70.6702 147.987 80.9865 97.4461 93.1671 70.9502Z" fill="#000002"/>
<path d="M185.958 363.671C163.429 340.561 140.077 287.611 140.077 287.611L167.608 283.623C167.608 283.623 195.974 335.49 196.417 336.333C196.859 337.179 185.958 363.671 185.958 363.671Z" fill="#FFBBAD"/>
<path d="M174.532 349.717C175.87 351.583 177.219 353.386 178.574 355.118L189.721 354.122L191.859 327.983C188.413 321.676 183.533 312.744 179.044 304.539L174.532 349.717Z" fill="#F7907D"/>
<path d="M190.873 242.165L206.282 241.055C208.364 246.971 217.533 330.712 216.147 343.555C214.6 357.931 211.374 372.918 197.91 372.907C184.447 372.898 178.313 353.373 179.195 342.233C179.862 333.805 194.358 292.833 190.873 242.165Z" fill="#FFBBAD"/>
<path d="M191.482 254.79C186.277 245.224 175.803 236.387 173.689 233.57C171.574 230.751 169.945 215.207 169.945 215.207L186.989 197.464L189.281 174.13C192.884 178.485 194.108 187.852 196.328 194.25C197.914 196.187 199.675 199.269 200.998 201.163C202.318 202.175 203.181 203.633 203.464 204.949C204.521 209.882 208.131 254.527 208.131 254.527C208.131 254.527 201.621 260.306 191.482 254.79Z" fill="#F7907D"/>
<path d="M198.795 260.646C197.56 257.389 195.094 243.432 193.862 239.909C192.628 236.387 195.8 219.655 196.151 216.926C196.505 214.196 194.654 207.503 194.654 207.503C194.654 207.503 198.795 203.629 198.795 203.277C197.209 201.032 195.8 197.992 195.8 197.992C197.34 197.155 203.639 201.912 204.256 203.32C204.873 204.729 208.705 257.344 208.705 257.344L198.795 260.646Z" fill="#FFBBAD"/>
<path d="M185.06 365.025C192.028 361.837 208.781 354.167 215.097 351.27C215.388 349.581 215.636 347.864 215.85 346.139L180.727 355.349C181.716 358.794 183.157 362.167 185.06 365.025Z" fill="#F7907D"/>
<path d="M129.554 221.946C148.846 234.625 172.631 276.893 173.952 281.386C165.496 301.463 124.533 320.484 124.533 320.484L129.554 221.946Z" fill="#FF5B6E"/>
<path d="M124.276 386H25.4432C54.612 328.272 48.95 240.194 89.8873 219.068C89.8873 219.068 116.795 213.389 128.477 224.577C140.159 235.766 161.646 305.997 159.372 313.212C157.096 320.425 143.189 341.135 137.005 350.369C135.268 352.25 124.968 363.992 124.276 386Z" fill="#FF3266"/>
<path d="M129.375 335.276C125.935 335.276 111.32 341.969 89.2961 338.624L91.0805 386H27.9742C33.2198 375.53 39.2119 362.12 42.7852 349.366C50.1842 322.949 56.3878 275.985 66.128 256.553C66.128 256.553 102.07 304.103 103.883 306.981C105.697 309.858 131.276 319.565 157.92 313.087C153.822 320.609 141.096 340.032 141.096 340.032C141.096 340.032 132.814 335.276 129.375 335.276Z" fill="#EC1D3E"/>
<path d="M118.014 161.272C112.73 202.132 89.2961 219.567 89.2961 219.567C107.357 237.532 133.343 274.164 140.038 277.687C141.799 279.007 132.814 238.324 130.876 226.611C131.228 199.489 145.323 189.099 145.323 189.099L118.014 161.272Z" fill="#FFBBAD"/>
<path d="M108.854 169.725C131.757 210.937 146.557 222.914 146.557 222.914L168.402 180.292L109.558 119.355L108.854 169.725Z" fill="#F7907D"/>
<path d="M196.328 194.25C195.582 192.097 194.945 189.608 194.296 187.087C193.983 188.027 193.685 188.834 193.685 188.834L195.359 194.977L197.323 195.577C196.988 195.102 196.654 194.649 196.328 194.25Z" fill="#FFBBAD"/>
<path d="M200.16 137.012C199.983 129.993 192.546 101.336 175.894 97.9887C147.353 92.2511 124.869 98.7428 119.132 127.275C115.051 147.573 118.827 156.494 120.58 169.66C128.624 195.488 152.387 216.215 162.061 218.158C173.391 220.434 191.249 193.59 192.8 188.838C197.252 175.215 194.388 171.47 196.427 157.989C197.655 149.87 200.275 141.637 200.16 137.012Z" fill="#FFBBAD"/>
<path d="M193.398 200.085C193.398 200.085 195.271 199.897 194.654 198.929C194.037 197.96 184.743 193.853 181.176 192.093C177.61 190.331 180.13 198.599 185.108 200.447C190.084 202.298 191.79 201.032 191.79 201.032C194.257 200.018 196.197 199.755 196.197 199.755L193.398 200.085Z" fill="#F7907D"/>
<path d="M195.558 198.95C188.94 202.298 180.438 200.557 178.764 200.911C177.092 201.262 177.685 207.108 186.758 207.548C192.923 207.846 196.395 204.235 196.395 204.235L195.558 198.95Z" fill="#F7907D"/>
<path d="M229.519 317.766C198.84 325.052 149.973 338.085 135.686 340.899L109.527 267.255L77.8124 285.23L107.62 364.866C111.672 377.018 123.186 378.25 131.228 377.018C149.144 373.358 237.995 337.655 237.995 337.655C237.132 326.939 229.519 317.766 229.519 317.766Z" fill="#FFBBAD"/>
<path d="M236.525 338.244C235.867 338.507 235 338.855 233.945 339.275L233.873 339.286C233.873 339.286 232.702 334.334 232.214 331.661C233.276 333.779 235.591 336.982 236.525 338.244Z" fill="#F7907D"/>
<path d="M124.006 308.018L118.4 292.236L117.785 291.237L83.9059 297.266L85.4035 305.514L96.844 336.074L124.006 308.018Z" fill="#F7907D"/>
<path d="M72.0318 332.636L130.171 300.935C120.923 273.459 115.725 260.252 109.735 246.514C103.745 232.776 95.9032 219.964 85.0237 218.907C68.7908 217.33 50.0958 256.816 72.0318 332.636Z" fill="#FF5B6E"/>
<path d="M330.27 373.231H251.915V367.243H330.27V373.231Z" fill="#134186"/>
<path d="M190.724 91.6286C187.477 126.544 137.535 145.903 95.1998 137.937C85.7379 113.939 136.752 74.9464 154.636 71.803C172.519 68.6596 190.724 91.6286 190.724 91.6286Z" fill="#000002"/>
<path d="M123.905 141.796C122.541 131.471 114.667 127.137 110.075 130.291C104.433 134.165 102.711 143.226 104.716 149.712C106.718 156.199 114.307 165.592 118.489 165.441C125.053 165.206 124.176 150.316 123.905 141.796Z" fill="#FFBBAD"/>
<path d="M132.585 135.416C126.921 150.625 128.291 165.047 128.848 177.689C129.407 190.331 111.1 201.608 109.223 212.953C107.348 224.297 109.782 226.268 109.782 226.268C97.3791 215.557 103.552 197.941 110.904 189.172C118.351 180.294 122.867 172.579 123.063 158.202C123.257 143.826 123.216 133.309 123.216 133.309L132.585 135.416Z" fill="#000002"/>
<path d="M229.519 317.766C244.162 313.657 276.237 336.488 278.328 337.785C281.437 339.717 290.897 348.238 293.506 350.433C296.123 352.638 312.647 364.346 310.151 366.041C307.652 367.739 303.423 367.924 299.746 365.135C296.069 362.346 281.381 351.719 281.381 351.719C281.381 351.719 278.824 357.275 277.385 358.925C275.944 360.578 259.816 362.036 257.594 361.378C255.371 360.718 252.087 354.812 251.703 352.938C251.319 351.063 253.861 350.347 255.678 350.42C250.352 348.005 244.671 346.059 240.304 343.074C235.936 340.088 228 326.368 228 326.368L229.519 317.766Z" fill="#FFBBAD"/>
<path d="M195.8 197.992C189.104 201.34 180.384 200.369 178.71 200.723C177.036 201.075 182.145 207.591 188.312 207.328C194.479 207.063 198.795 203.277 198.795 203.277L195.8 197.992Z" fill="#FFBBAD"/>
<path d="M180.648 222.209C181.968 225.026 187.518 235.507 186.726 236.298C185.934 237.092 178.533 235.33 177.124 233.393C175.715 231.456 174.129 224.674 174.481 224.234C174.835 223.794 180.648 222.209 180.648 222.209Z" fill="#FFBBAD"/>
<path d="M199.94 199.666C199.94 199.666 198.354 195.879 197.737 194.91C197.12 193.942 184.877 191.785 181.308 190.024C177.741 188.262 179.767 196.495 184.743 198.344C189.721 200.195 191.924 198.961 191.924 198.961C195.892 197.194 196.538 197.591 196.538 197.591L199.94 199.666Z" fill="#FFBBAD"/>
<path d="M135.686 340.899C130.423 344.37 125.463 350.97 125.463 350.97C129.467 342.552 134.538 337.67 134.538 337.67L135.686 340.899Z" fill="#F7907D"/>
<path d="M75.7301 291.379C71.5074 267.624 72.3036 226.853 84.1649 220.294C68.6872 223.033 54.6422 256.339 75.3784 328.014L83.2672 323.71C81.2044 316.664 78.2051 305.292 75.7301 291.379Z" fill="#FB4148"/>
<path d="M103.919 68.1936C93.6137 74.7978 91.1021 91.7052 91.1021 91.7052C123.741 96.0642 129.951 128.822 129.951 128.822C160.872 127.368 175.406 101.612 175.406 101.612C126.252 91.0449 106.431 74.4016 103.919 68.1936Z" fill="#134186"/>
<path d="M120.702 157.353C120.702 157.353 118.588 154.249 118.389 152.4C118.191 150.552 120.174 144.408 120.174 144.408C119.248 137.342 112.574 132.819 108.71 136.285C111.154 135.593 114.954 136.846 116.54 138.861C118.124 140.875 118.985 144.046 118.985 144.441C118.059 146.49 117.431 151.311 117.431 151.311C114.391 151.938 113.698 151.805 113.698 151.805C115.878 150.155 117.464 153.325 117.464 153.325C118.456 155.67 120.702 157.353 120.702 157.353Z" fill="#F7907D"/>
<path d="M116.803 138.662C117.729 141.238 112.201 139.984 110.88 144.805C109.558 149.626 115.945 157.156 117.2 156.298C118.456 155.437 118.588 154.447 118.588 154.447L117.662 151.013L119.315 144.21C119.315 144.21 117.861 139.851 116.803 138.662Z" fill="#F7907D"/>
<path d="M414.572 373.084H340.269V366.686H414.572C416.587 366.686 418.413 365.742 419.58 364.1C420.745 362.454 421.032 360.42 420.366 358.518L385.61 259.46L391.652 257.342L426.405 356.402C427.747 360.23 427.148 364.491 424.8 367.799C422.454 371.108 418.631 373.084 414.572 373.084Z" fill="#134186"/>
<path d="M483 386H0V373H483V386Z" fill="#3B3D42"/>
<path d="M166.046 154.689C166.046 152.501 164.272 150.726 162.082 150.726C159.892 150.726 158.118 152.501 158.118 154.689C158.118 156.878 159.892 158.653 162.082 158.653C164.272 158.653 166.046 156.878 166.046 154.689Z" fill="#000002"/>
<path d="M194.403 157.946C194.852 155.804 193.674 153.744 191.769 153.343C189.866 152.944 187.956 154.354 187.505 156.496C187.056 158.638 188.234 160.7 190.14 161.099C192.043 161.5 193.952 160.088 194.403 157.946Z" fill="#000002"/>
<path d="M255.678 350.42C258.53 351.27 260.244 355.099 260.295 355.349C262.36 355.349 263.821 355.25 263.821 355.25C259.639 351.27 255.678 350.42 255.678 350.42Z" fill="#F7907D"/>
<path d="M281.381 351.719L282.743 346.989L283.159 353.007L281.381 351.719Z" fill="#F7907D"/>
<path d="M175.758 130.574C176.815 133.214 175.56 134.413 174.502 134.767C173.447 135.118 163.537 133.248 155.102 136.792C150.273 138.822 155.115 132.903 162.852 131.507C170.064 130.209 175.396 130.011 175.758 130.574Z" fill="#000002"/>
<path d="M191.262 132.433C191.262 133.841 190.867 135.515 192.099 135.955C193.333 136.395 199.058 137.321 200.909 139.521C202.01 137.761 202.01 137.761 202.01 137.761C197.782 132.256 191.262 131.639 191.262 132.433Z" fill="#000002"/>
<path d="M183.554 174.46C178.665 177.365 172.124 175.053 168.359 173.006C178.004 180.271 179.129 181.196 183.554 174.46Z" fill="#FA746C"/>
<path d="M178.03 188.077C161.875 187.818 147.086 174.921 147.086 174.921C147.086 174.921 150.506 180.542 163.118 186.017C175.73 191.491 178.03 188.077 178.03 188.077Z" fill="#FA746C"/>
<path d="M93.3484 103.329C90.9899 112.159 87.7187 120.776 83.5564 128.988C79.3595 137.178 74.2175 144.928 68.2427 151.979C62.3174 159.082 55.5398 165.407 48.6328 171.438C41.7107 177.46 34.5533 183.113 28.0217 189.319C21.4448 195.454 15.5066 202.216 11.0875 209.938C9.96548 211.853 8.92976 213.82 7.99976 215.839C7.06328 217.845 6.25843 219.886 5.59383 221.987C4.27112 226.18 3.50294 230.552 3.28716 234.97C2.89444 243.822 4.75445 252.767 8.04074 261.147C9.65044 265.36 11.6529 269.434 13.8905 273.381C15.0104 275.355 16.2036 277.292 17.4659 279.186C18.7196 281.086 20.0315 282.954 21.4664 284.731C18.2859 281.442 15.4635 277.808 12.8957 273.996C10.3345 270.183 8.06664 266.153 6.13112 261.954C4.21933 257.743 2.67006 253.347 1.5847 248.811C0.514441 244.273 -0.046597 239.586 0.00303184 234.879C0.039714 230.173 0.728037 225.451 2.07233 220.915C2.73477 218.648 3.56121 216.415 4.51063 214.265C5.44279 212.119 6.4893 210.018 7.63292 207.971C12.2139 199.765 18.4348 192.613 25.1584 186.28C31.9316 179.966 39.1257 174.294 46.0737 168.444C53.0584 162.635 59.7324 156.531 65.7979 149.848C71.8354 143.149 77.2212 135.85 81.7719 128.013C86.3637 120.196 90.1182 111.875 93.3484 103.329Z" fill="#000002"/>
<path d="M222.139 321.715C223.812 327.528 227.952 342.938 227.335 343.995C226.72 345.052 223.548 346.637 222.139 346.109C220.728 345.58 214.695 326.383 213.946 323.918C213.562 322.651 222.139 321.715 222.139 321.715Z" fill="#F8FDFF"/>
<path d="M226.015 318.788C226.105 319.867 226.697 321.077 220.09 323.059C213.485 325.041 211.172 324.974 210.246 324.644C209.322 324.314 208.66 322.399 209.057 321.409C209.454 320.417 222.668 316.72 224.056 316.72C225.443 316.72 225.948 317.997 226.015 318.788Z" fill="#000002"/>
<path d="M262.719 233.639L306.144 214.72C308.636 213.635 309.775 210.734 308.69 208.242L294.336 175.32C293.251 172.829 290.349 171.688 287.857 172.775L244.431 191.694C241.939 192.779 240.8 195.678 241.885 198.169L256.239 231.094C257.326 233.585 260.226 234.724 262.719 233.639Z" fill="#F8FDFF"/>
<path d="M278.367 224.316L276.069 238.272L265.407 229.269L278.367 224.316Z" fill="#F8FDFF"/>
<path d="M285.785 198.678C285.086 197.807 285.226 196.532 286.1 195.833C286.972 195.134 288.245 195.277 288.944 196.148C289.643 197.02 289.503 198.294 288.631 198.993C287.757 199.692 286.484 199.55 285.785 198.678Z" fill="#1B1C1F"/>
<path d="M273.646 204.834C272.946 203.963 273.087 202.688 273.958 201.991C274.832 201.293 276.105 201.433 276.805 202.304C277.504 203.178 277.363 204.45 276.49 205.149C275.618 205.848 274.343 205.708 273.646 204.834Z" fill="#1B1C1F"/>
<path d="M261.202 210.477C260.503 209.606 260.643 208.333 261.515 207.634C262.388 206.935 263.662 207.075 264.361 207.949C265.06 208.82 264.92 210.093 264.046 210.792C263.174 211.491 261.899 211.351 261.202 210.477Z" fill="#1B1C1F"/>
<path d="M421.598 175.644L361.104 344.987L350.378 341.158L410.871 171.815L421.598 175.644Z" fill="#134186"/>
<path d="M411.795 217.576L377.832 312.647L371.811 310.499L405.773 215.427L411.795 217.576Z" fill="#134186"/>
</svg>
