<svg width="77" height="27" viewBox="0 0 77 27" xmlns="http://www.w3.org/2000/svg">
    <path d="M15.6539 0C16.5002 0 16.9242 0.430311 16.9242 1.28911V1.91902C16.9242 2.77782 16.5002 3.20814 15.6539 3.20814H10.1484V19.1408C10.1484 19.9996 9.72435 20.4299 8.87805 20.4299H8.04618C7.19988 20.4299 6.77583 19.9996 6.77583 19.1408V3.20814H1.27036C0.424055 3.20814 0 2.77782 0 1.91902V1.28911C0 0.430311 0.424055 0 1.27036 0H15.6539Z"/>
    <path d="M27.2711 6.33935C27.2711 5.48055 27.6952 5.05023 28.5415 5.06488H29.2669C30.1132 5.06488 30.5372 5.4952 30.5372 6.33935V13.446C30.5372 16.1927 29.9021 18.097 28.601 19.1866C27.3 20.2761 25.6218 20.7064 23.2616 20.7064C20.9013 20.7064 19.2538 20.2761 17.9528 19.1866C16.6517 18.097 16.0021 16.1927 16.0021 13.446V6.33935C16.0021 5.48055 16.4262 5.05023 17.2725 5.06488H17.9979C18.8442 5.06488 19.2682 5.4952 19.2682 6.33935V13.4624C19.2682 15.0592 19.5714 16.1487 20.1903 16.7475C20.8111 17.3463 21.8234 17.6539 23.2616 17.6539C24.6979 17.6539 25.7265 17.3463 26.3472 16.7475C26.968 16.1487 27.2693 15.0592 27.2693 13.4624V6.33935H27.2711Z"/>
    <path d="M44.7009 6.33935C44.7009 5.48055 45.125 5.05023 45.9713 5.06488H46.6967C47.543 5.06488 47.9671 5.4952 47.9671 6.33935V13.446C47.9671 16.1927 47.3319 18.097 46.0308 19.1866C44.7298 20.2761 43.0498 20.7064 40.6896 20.7064C38.3311 20.7064 36.6818 20.2761 35.3808 19.1866C34.0798 18.097 33.4301 16.1927 33.4301 13.446V6.33935C33.4301 5.48055 33.8542 5.05023 34.7005 5.06488H35.4259C36.2722 5.06488 36.6963 5.4952 36.6963 6.33935V13.4624C36.6963 15.0592 36.9994 16.1487 37.6184 16.7475C38.2391 17.3463 39.2514 17.6539 40.6878 17.6539C42.1259 17.6539 43.1545 17.3463 43.7734 16.7475C44.3942 16.1487 44.6973 15.0592 44.6973 13.4624V6.33935H44.7009Z"/>
    <path d="M60.2541 6.81545C60.2541 7.67425 59.83 8.10457 58.9982 8.10457H54.1874V14.92C54.1874 16.8079 54.9128 17.5605 56.7444 17.5605C57.1071 17.5605 57.5167 17.5147 57.9841 17.4378C58.4532 17.3609 58.7708 17.3298 58.9513 17.3298C59.9203 17.3298 60.2216 17.6374 60.2216 18.4193V18.9101C60.2216 19.6938 59.8896 20.1681 59.2237 20.3072C54.413 21.5194 50.8744 20.1388 50.8582 14.92V2.73203C50.8582 1.87323 51.2822 1.44292 52.1285 1.44292H52.9153C53.7616 1.44292 54.1856 1.87323 54.1856 2.73203V5.06489H58.9964C59.8427 5.06489 60.2667 5.49521 60.2523 6.33936V6.81545H60.2541Z"/>
    <path d="M73.7339 6.33935C73.7339 5.48055 74.1579 5.05023 75.0042 5.06488H75.7296C76.5759 5.06488 77 5.4952 77 6.33935V21.1056C77 23.6838 75.6232 25.557 73.5661 26.3865C72.5231 26.8004 71.3267 27 69.9805 27C68.7246 27 67.3947 26.8004 65.9872 26.4158C65.2763 26.2163 64.928 25.7402 64.9442 24.9729V24.5133C64.9442 23.6069 65.4585 23.1784 66.3662 23.4073C67.6979 23.7296 68.8473 23.898 69.8308 23.8834C72.2506 23.8834 73.7339 22.9935 73.7339 21.1056V20.5526C72.8118 20.6606 71.8879 20.7064 70.9658 20.7064C68.1977 20.7064 66.1262 20.093 64.7187 18.8643C63.3112 17.6356 62.6165 15.5939 62.6165 12.7556V6.33935C62.6165 5.48055 63.0405 5.05023 63.8868 5.06488H64.6122C65.4585 5.06488 65.8826 5.4952 65.8826 6.33935V12.5102C65.8826 14.4439 66.2759 15.7807 67.0483 16.5314C67.8188 17.284 69.1054 17.6521 70.9045 17.6521C71.6912 17.6521 72.6295 17.5898 73.7339 17.4671V6.33935Z"/>
</svg>
