<svg width="20" height="20" viewBox="0 0 20 20" xmlns="http://www.w3.org/2000/svg">
    <path d="M10 1.66667C9.17591 1.66667 8.37033 1.91104 7.68512 2.36888C6.99992 2.82672 6.46587 3.47747 6.1505 4.23882C5.83514 5.00018 5.75262 5.83796 5.91339 6.64621C6.07417 7.45447 6.471 8.1969 7.05372 8.77962C7.63644 9.36234 8.37887 9.75917 9.18712 9.91994C9.99538 10.0807 10.8332 9.9982 11.5945 9.68284C12.3559 9.36747 13.0066 8.83342 13.4645 8.14821C13.9223 7.46301 14.1667 6.65743 14.1667 5.83334C14.1667 4.72827 13.7277 3.66846 12.9463 2.88706C12.1649 2.10566 11.1051 1.66667 10 1.66667V1.66667ZM10 8.33334C9.50555 8.33334 9.0222 8.18672 8.61107 7.91201C8.19995 7.63731 7.87952 7.24686 7.6903 6.79005C7.50108 6.33323 7.45157 5.83057 7.54804 5.34561C7.6445 4.86066 7.8826 4.4152 8.23223 4.06557C8.58186 3.71594 9.02732 3.47784 9.51227 3.38138C9.99723 3.28491 10.4999 3.33442 10.9567 3.52364C11.4135 3.71286 11.804 4.03329 12.0787 4.44441C12.3534 4.85554 12.5 5.33889 12.5 5.83334C12.5 6.49638 12.2366 7.13226 11.7678 7.60111C11.2989 8.06995 10.663 8.33334 10 8.33334V8.33334ZM17.5 17.5V16.6667C17.5 15.1196 16.8854 13.6358 15.7915 12.5419C14.6975 11.4479 13.2138 10.8333 11.6667 10.8333H8.33333C6.78624 10.8333 5.30251 11.4479 4.20854 12.5419C3.11458 13.6358 2.5 15.1196 2.5 16.6667V17.5H4.16667V16.6667C4.16667 15.5616 4.60565 14.5018 5.38706 13.7204C6.16846 12.939 7.22826 12.5 8.33333 12.5H11.6667C12.7717 12.5 13.8315 12.939 14.6129 13.7204C15.3943 14.5018 15.8333 15.5616 15.8333 16.6667V17.5H17.5Z"/>
</svg>
